# xmcd
#
# Track frame offsets: 
#        150
#        20165
#        39065
#        64827
#        108739
#        128389
#        154939
#        183589
#        220489
#        258776
#        288288
#
# Disc length: 4349 seconds
#
# Revision: 0
# Processed by: cddbd v1.5.2PL0 Copyright (c) Steve Scherf et al.
# Submitted via: ExactAudioCopy v1.0b4
#
DISCID=9a10fb0b
DTITLE=Albert Castiglia - Wild And Free
DYEAR=2020
DGENRE=Blues Rock
TTITLE0=Let The Big Dog Eat
TTITLE1=Hoodoo On Me
TTITLE2=I Been Up All Night
TTITLE3=Heavy
TTITLE4=Get Your Ass In The Van
TTITLE5=Searching The Desert
TTITLE6=For The Blues
TTITLE7=Keep On Swinging
TTITLE8=Lovin' Cup
TTITLE9=I Tried To Tell Ya
TTITLE10=Boogie Funk
EXTD=
EXTT0=
EXTT1=
EXTT2=
EXTT3=
EXTT4=
EXTT5=
EXTT6=
EXTT7=
EXTT8=
EXTT9=
EXTT10=
PLAYORDER=
